# xmcd CD database file
#
# Track frame offsets:
#	150
#	18150
#	35025
#	57150
#	71400
#	91575
#	114375
#	134550
#	155100
#	171675
#	190650
#	209850
#	226050
#	246600
#	264075
#
# Disc length: 3783 seconds
#
# Revision: 1
# Processed by: cddbd v1.5.1PL2 Copyright (c) Steve Scherf et al.
# Submitted via: freeDBTagger 0.8.2.1
#
DISCID=d60ec50f
DTITLE=Various Artist - 青春歌年鑑’80 BEST30 [CD1]
DYEAR=2000
DGENRE=misc
TTITLE0=ダンシング・オールナイト -- もんた and ブラザーズ
TTITLE1=異邦人 -- 久保田早紀
TTITLE2=大都会 -- クリスタルキング
TTITLE3=ランナウェイ -- シャネルズ
TTITLE4=ライディーン -- Yellow Magic Orchestra
TTITLE5=さよなら -- オフコース
TTITLE6=SACHIKO -- ばんばひろふみ
TTITLE7=昴 -- 谷村新司
TTITLE8=青い珊瑚礁 -- 松田聖子
TTITLE9=パープルタウン -- 八神純子
TTITLE10=秋止符 -- アリス
TTITLE11=ハッとして!Good -- 田原俊彦
TTITLE12=Wake Up -- 財津和夫
TTITLE13=唇よ、熱く君を語れ -- 渡辺真知子
TTITLE14=おやじの海 -- 村木賢吉
EXTD=
EXTT0=
EXTT1=
EXTT2=
EXTT3=
EXTT4=
EXTT5=
EXTT6=
EXTT7=
EXTT8=
EXTT9=
EXTT10=
EXTT11=
EXTT12=
EXTT13=
EXTT14=
PLAYORDER=
